HIERARCHY
ROOT RootJoint
{
    OFFSET   0.000000   0.000000   0.000000
    CHANNELS 6 Xposition Yposition Zposition Xrotation Yrotation Zrotation
    JOINT pelvis_lowerback
    {
        OFFSET   0.000000   0.093605   0.000000
        CHANNELS 3 Xrotation Yrotation Zrotation
        JOINT lowerback_torso
        {
            OFFSET   0.000000   0.100000   0.000000
            CHANNELS 3 Xrotation Yrotation Zrotation
            JOINT torso_head
            {
                OFFSET   0.000000   0.282350   0.000000
                CHANNELS 3 Xrotation Yrotation Zrotation
                End Site
                {
                    OFFSET   0.000000   0.192650   0.000000
                }
            }
            JOINT rTorso_Clavicle
            {
                OFFSET  -0.001000   0.157500   0.000000
                CHANNELS 3 Xrotation Yrotation Zrotation
                JOINT rShoulder
                {
                    OFFSET  -0.117647   0.000000   0.000000
                    CHANNELS 3 Xrotation Yrotation Zrotation
                    JOINT rElbow
                    {
                        OFFSET  -0.245000   0.000000   0.000000
                        CHANNELS 3 Xrotation Yrotation Zrotation
                        JOINT rWrist
                        {
                            OFFSET  -0.240000   0.000000   0.000000
                            CHANNELS 3 Xrotation Yrotation Zrotation
                            End Site
                            {
                                OFFSET  -0.116353  -0.002500   0.000000
                            }
                        }
                    }
                }
            }
            JOINT lTorso_Clavicle
            {
                OFFSET   0.001000   0.157500   0.000000
                CHANNELS 3 Xrotation Yrotation Zrotation
                JOINT lShoulder
                {
                    OFFSET   0.117647   0.000000   0.000000
                    CHANNELS 3 Xrotation Yrotation Zrotation
                    JOINT lElbow
                    {
                        OFFSET   0.245000   0.000000   0.000000
                        CHANNELS 3 Xrotation Yrotation Zrotation
                        JOINT lWrist
                        {
                            OFFSET   0.240000   0.000000   0.000000
                            CHANNELS 3 Xrotation Yrotation Zrotation
                            End Site
                            {
                                OFFSET   0.116353  -0.002500   0.000000
                            }
                        }
                    }
                }
            }
        }
    }
    JOINT rHip
    {
        OFFSET  -0.100000  -0.051395   0.000000
        CHANNELS 3 Xrotation Yrotation Zrotation
        JOINT rKnee
        {
            OFFSET   0.000000  -0.410000   0.000000
            CHANNELS 3 Xrotation Yrotation Zrotation
            JOINT rAnkle
            {
                OFFSET   0.000000  -0.390000   0.000000
                CHANNELS 3 Xrotation Yrotation Zrotation
                JOINT rToeJoint
                {
                    OFFSET   0.000000  -0.050000   0.130000
                    CHANNELS 3 Xrotation Yrotation Zrotation
                    End Site
                    {
                        OFFSET  -0.010000   0.002000   0.060000
                    }
                }
            }
        }
    }
    JOINT lHip
    {
        OFFSET   0.100000  -0.051395   0.000000
        CHANNELS 3 Xrotation Yrotation Zrotation
        JOINT lKnee
        {
            OFFSET   0.000000  -0.410000   0.000000
            CHANNELS 3 Xrotation Yrotation Zrotation
            JOINT lAnkle
            {
                OFFSET   0.000000  -0.390000   0.000000
                CHANNELS 3 Xrotation Yrotation Zrotation
                JOINT lToeJoint
                {
                    OFFSET   0.000000  -0.050000   0.130000
                    CHANNELS 3 Xrotation Yrotation Zrotation
                    End Site
                    {
                        OFFSET   0.010000   0.002000   0.060000
                    }
                }
            }
        }
    }
}
MOTION
Frames: 15
Frame Time:   0.008333
 -2.376719   0.925631   3.975860   0.000000   0.000000   0.000000   0.000000   0.000000   0.000000   0.000000   0.000000   0.000000   0.000000   0.000000   0.000000   0.000000   0.000000   0.000000   0.000000   0.000000   0.000000   0.000000   0.000000   0.000000   0.000000   0.000000   0.000000   0.000000   0.000000   0.000000   0.000000   0.000000   0.000000   0.000000   0.000000   0.000000   0.000000   0.000000   0.000000   0.000000   0.000000   0.000000   0.000000   0.000000   0.000000   0.000000   0.000000   0.000000   0.000000   0.000000   0.000000   0.000000   0.000000   0.000000   0.000000   0.000000   0.000000   0.000000   0.000000   0.000000   0.000000   0.000000   0.000000
 -2.376683   0.926280   3.975974  -0.035265   0.064921  -0.176563   0.045662  -0.050028   0.182665   0.058188  -0.089311   0.070778  -0.151613   0.191877   0.100088   0.096097  -0.382587   0.374968   0.372799   0.165665   2.072707   0.020097   0.909856  -0.004369   0.192303  -0.182816  -3.035892   0.165353   0.402281  -0.513300   0.612046   0.050735  -2.067561   0.027619  -1.258622   0.009503   0.219372   0.237233   2.998884  -0.129755   0.051533   0.101287   0.457051   0.000302   0.000464  -0.488544  -0.298162  -0.072348  -0.291576  -0.000374   0.000460  -0.250349   0.013098   0.284396   1.145036  -0.001070   0.000801  -1.129486   0.205960   0.048263   0.280959  -0.000382   0.000697
 -2.376600   0.927375   3.976320  -0.102595   0.103121  -0.378741   0.072058  -0.100874   0.388614   0.128949  -0.180157   0.175295  -0.281629   0.376498   0.213717   0.193547  -0.766038   1.498337   0.729646   0.340712   4.743468   0.046035   1.783558  -0.007134   0.412047  -0.117973  -5.342759   0.334779   0.798943  -1.785592   1.211520   0.073395  -4.749559   0.063063  -2.464511   0.016106   0.475852   0.162773   5.246434  -0.251187   0.103665   0.141262   0.932838   0.000924   0.000739  -0.948023  -0.578278  -0.142775  -0.602498  -0.000933   0.000873  -0.398925   0.033638   0.666222   2.366563  -0.002735   0.001374  -2.182951   0.402885   0.099285   0.501927  -0.000745   0.001058
 -2.376466   0.928486   3.976836  -0.166139   0.124258  -0.578606   0.069555  -0.158179   0.597285   0.180831  -0.274207   0.290251  -0.401993   0.548629   0.325075   0.294035  -1.132786   3.081132   1.070779   0.521154   7.809563   0.071005   2.597142  -0.008429   0.627836  -0.016231  -6.771926   0.505316   1.166631  -3.507677   1.799781   0.065611  -7.829639   0.097129  -3.590252   0.020157   0.726451   0.029108   6.613115  -0.387795   0.151124   0.103849   1.378507   0.001675   0.000837  -1.377992  -0.840154  -0.211190  -0.897643  -0.001539   0.001179  -0.469556   0.053663   1.099225   3.549332  -0.004540   0.001730  -3.164707   0.586961   0.151080   0.703021  -0.001089   0.001253
 -2.376294   0.929300   3.977470  -0.220035   0.134673  -0.770599   0.044450  -0.223971   0.804082   0.211594  -0.373480   0.409110  -0.516456   0.708904   0.430642   0.401308  -1.484741   4.922784   1.399067   0.707557  11.141776   0.092085   3.351755  -0.008703   0.831375   0.070733  -7.540311   0.678868   1.505533  -5.475228   2.380574   0.023128 -11.174487   0.125932  -4.638986   0.022476   0.963243  -0.105987   7.325481  -0.543005   0.194493  -0.001759   1.787799   0.002416   0.000824  -1.780601  -1.085008  -0.277530  -1.175855  -0.002121   0.001383  -0.480848   0.073063   1.566019   4.676199  -0.006272   0.001975  -4.081024   0.758642   0.202956   0.882679  -0.001378   0.001332
 -2.376104   0.929586   3.978178  -0.265430   0.136205  -0.953027   0.003446  -0.298074   1.006032   0.225897  -0.478226   0.527210  -0.625340   0.858159   0.530530   0.517465  -1.824119   6.890569   1.716155   0.900157  14.652123   0.108239   4.050413  -0.008319   1.019827   0.129107  -7.857270   0.855821   1.817951  -7.562420   2.950119  -0.055313 -14.669058   0.148022  -5.615533   0.023644   1.184583  -0.228919   7.584143  -0.714980   0.234775  -0.162991   2.162199   0.003068   0.000745  -2.157548  -1.313846  -0.341648  -1.436758  -0.002631   0.001502  -0.445001   0.092305   2.056068   5.745541  -0.007823   0.002149  -4.936479   0.918645   0.254453   1.043074  -0.001601   0.001334
 -2.375957   0.929159   3.978924  -0.304801   0.129657  -1.122454  -0.047722  -0.378971   1.194026   0.229134  -0.587094   0.627750  -0.728591   0.997061   0.628692   0.643970  -2.152517   8.903789   2.023039   1.099217  18.285976   0.119418   4.696519  -0.007549   1.192745   0.155449  -7.871790   1.037346   2.107153  -9.731293   3.479345  -0.163127 -18.092666   0.162735  -6.525201   0.023878   1.391106  -0.340191   7.468087  -0.900897   0.272702  -0.366979   2.504478   0.003580   0.000629  -2.510437  -1.527678  -0.403464  -1.680759  -0.003037   0.001557  -0.371538   0.111702   2.562291   6.758740  -0.009171   0.002272  -5.735121   1.067647   0.305162   1.186642  -0.001765   0.001285
 -2.375772   0.927271   3.979183  -0.234287   0.104189  -1.263884  -0.050031  -0.416724   1.390259   0.142223  -0.700495   0.683815  -0.979506   0.991783   0.675463   0.796821  -2.366716  10.280499   2.415575   1.240821  21.754401   0.130966   5.504517  -0.008424   1.255077   0.086296  -6.718382   1.227631   2.412399 -11.108958   3.782368  -0.309695 -21.523871   0.169743  -7.469986   0.022778   1.527231  -0.502667   6.350846  -1.334516   0.025420  -0.573241   3.230466   0.004993  -0.001369  -2.699269  -1.849500  -0.232583  -1.713733  -0.002489   0.001412  -0.372582   0.198113   2.994481   7.167085  -0.008326   0.002212  -6.387604   1.366275   0.443842   1.352515  -0.002011   0.001575
 -2.375587   0.924151   3.979200  -0.156223   0.131352  -1.392879  -0.010714  -0.460931   1.578068   0.069072  -0.813328   0.734797  -1.224548   0.980208   0.713443   0.934472  -2.537267  11.370559   2.766973   1.410857  24.864023   0.134019   6.269177  -0.009186   1.326237   0.072394  -5.636091   1.396140   2.671636 -12.188298   4.048923  -0.474970 -24.594170   0.168044  -8.361920   0.021555   1.657521  -0.717986   5.324320  -1.736741  -0.224214  -0.762582   3.952899   0.005884  -0.002670  -2.867456  -2.154826  -0.074595  -1.708049  -0.001983   0.001103  -0.457205   0.277864   3.379654   7.440738  -0.007225   0.002144  -7.003548   1.644743   0.577231   1.494102  -0.002061   0.001765
 -2.375406   0.919932   3.979073  -0.082652   0.187391  -1.513790   0.055778  -0.496646   1.757286   0.018140  -0.915061   0.785777  -1.450404   0.968949   0.748259   1.055228  -2.675375  12.254242   3.078417   1.598889  27.671144   0.131585   6.989437  -0.009779   1.401238   0.093898  -4.781290   1.544664   2.896628 -13.055613   4.282994  -0.648587 -27.359245   0.160965  -9.199764   0.020111   1.785073  -0.954878   4.532924  -2.083172  -0.455795  -0.930964   4.639251   0.006304  -0.003368  -3.022758  -2.440073   0.072069  -1.697112  -0.001571   0.000838  -0.607470   0.350348   3.725189   7.654780  -0.006156   0.002047  -7.581046   1.902999   0.704625   1.621044  -0.002007   0.001872
 -2.375052   0.919060   3.979394  -0.128405  -0.019737  -0.991507   0.149714  -0.420011   1.429174   0.006118  -0.924870   0.624736  -1.647709   0.962148   0.764342   1.155984  -2.768540  13.294148   3.349469   1.811677  30.348749   0.127822   7.665052  -0.009522   1.480433   0.127657  -4.130628   1.701042   3.136206 -13.968817   4.502543  -0.791274 -29.905861   0.152137  -9.959556   0.018483   1.898832  -1.089455   4.006388  -2.279299  -0.645431  -1.653791   5.293658   0.005974  -0.005268  -3.155678  -2.708033   0.205914  -1.602398  -0.001178   0.000097  -0.874238   0.392167   3.152414   8.394815  -0.004685   0.000678  -7.836038   2.051025   0.600364   1.226423  -0.002148   0.001521
 -2.375141   0.918961   3.979910  -0.177644  -0.260402  -0.924437   0.224890  -0.345993   1.542470  -0.005949  -0.916770   0.592233  -1.832435   0.954740   0.774258   1.246673  -2.848039  14.111624   3.591404   2.025602  32.791154   0.121560   8.300776  -0.008873   1.557101   0.189976  -3.476015   1.862674   3.373024 -14.798184   4.710117  -0.927885 -32.329476   0.141588 -10.672517   0.016797   2.005259  -1.222026   3.416363  -2.540030  -0.847185  -1.772603   5.875474   0.004796  -0.006598  -3.207708  -2.965354   0.351365  -1.527236  -0.000991  -0.000393  -1.015923   0.483194   3.081696   8.935343  -0.003800  -0.000080  -8.144460   2.275096   0.675480   1.306362  -0.001763   0.001278
 -2.375409   0.918857   3.980541  -0.208568  -0.425896  -0.870079   0.276457  -0.305376   1.638955  -0.027173  -0.927055   0.595448  -2.008057   0.945980   0.797963   1.336827  -2.930556  14.786061   3.811790   2.227958  35.027947   0.113493   8.894916  -0.008118   1.630294   0.259801  -2.898052   2.015237   3.592293 -15.473789   4.899295  -1.060441 -34.542901   0.129677 -11.339936   0.015005   2.107206  -1.360442   2.873795  -2.772567  -1.025970  -1.858864   6.416244   0.003763  -0.007005  -3.333310  -3.191582   0.457569  -1.495453  -0.000811  -0.000477  -1.133155   0.569124   3.040096   9.387566  -0.003120  -0.000316  -8.461168   2.495032   0.767942   1.472345  -0.001549   0.001245
 -2.375872   0.918870   3.981259  -0.182176  -0.471318  -0.847381   0.327032  -0.282276   1.675142  -0.122196  -0.933007   0.697194  -2.157791   0.866444   0.810674   1.404863  -3.132630  15.053635   4.024443   2.427681  36.731655   0.102027   9.482468  -0.007217   1.624935   0.398557  -1.588383   2.173527   3.783858 -15.712825   4.975464  -1.239208 -36.442348   0.116573 -12.061518   0.012703   2.172511  -1.479098   1.799665  -2.846880  -1.140664  -1.878711   6.584360   0.002963  -0.005851  -3.391853  -3.323624   0.532221  -1.319946  -0.000764  -0.000835  -1.210215   0.604549   3.045577   9.608065  -0.002549  -0.000247  -8.640846   2.646994   0.870807   1.568313  -0.001342   0.001123
 -2.376478   0.918945   3.981881  -0.096911  -0.463960  -0.831083   0.369123  -0.264995   1.697599  -0.235922  -0.950061   0.789934  -2.303646   0.791839   0.827812   1.452840  -3.318881  15.022276   4.211452   2.612653  38.119236   0.089048  10.033818  -0.006495   1.617305   0.553413  -0.552689   2.291404   3.940462 -15.679882   5.022590  -1.416431 -38.036821   0.102129 -12.747602   0.010579   2.235170  -1.658449   0.968741  -2.924069  -1.239570  -1.875616   6.650504   0.002347  -0.004734  -3.479552  -3.444186   0.598535  -1.157692  -0.000737  -0.000967  -1.311797   0.632937   3.070598   9.732682  -0.002077  -0.000145  -8.837619   2.786199   0.972458   1.662829  -0.001181   0.001052
